<svg width="49" height="49" viewBox="0 0 49 49" fill="none" xmlns="http://www.w3.org/2000/svg">
<path d="M35.5 13.2632H35.52M14.5 4.26318H34.5C40.0228 4.26318 44.5 8.74034 44.5 14.2632V34.2632C44.5 39.786 40.0228 44.2632 34.5 44.2632H14.5C8.97715 44.2632 4.5 39.786 4.5 34.2632V14.2632C4.5 8.74034 8.97715 4.26318 14.5 4.26318ZM32.5 23.0032C32.7468 24.6677 32.4625 26.3676 31.6875 27.8612C30.9125 29.3548 29.6863 30.566 28.1833 31.3225C26.6802 32.0791 24.9769 32.3424 23.3156 32.075C21.6543 31.8077 20.1195 31.0233 18.9297 29.8335C17.7398 28.6437 16.9555 27.1089 16.6881 25.4476C16.4208 23.7863 16.6841 22.083 17.4407 20.5799C18.1972 19.0769 19.4084 17.8507 20.902 17.0757C22.3956 16.3007 24.0955 16.0164 25.76 16.2632C27.4578 16.515 29.0297 17.3061 30.2434 18.5198C31.4571 19.7335 32.2482 21.3053 32.5 23.0032Z" stroke="#F96464" stroke-width="4" stroke-linecap="round" stroke-linejoin="round"/>
</svg>
