<svg width="358" height="474" viewBox="0 0 358 474" fill="none" xmlns="http://www.w3.org/2000/svg">
<g filter="url(#filter0_d_47_767)">
<path d="M0.528687 24.1018C0.528687 10.847 11.2739 0.101807 24.5287 0.101807H333.232C346.487 0.101807 357.232 10.847 357.232 24.1018V449.9C357.232 463.154 346.487 473.9 333.232 473.9H24.5287C11.2738 473.9 0.528687 463.155 0.528687 449.9V24.1018Z" fill="url(#paint0_linear_47_767)"/>
<path d="M0.528687 26.1227C0.528687 11.7518 12.1787 0.101807 26.5496 0.101807H331.211C345.582 0.101807 357.232 11.7518 357.232 26.1227V447.879C357.232 462.25 345.582 473.9 331.211 473.9H26.5496C12.1787 473.9 0.528687 462.25 0.528687 447.879V26.1227Z" fill="url(#paint1_linear_47_767)"/>
<path d="M0.528687 26.1227C0.528687 11.7518 12.1787 0.101807 26.5496 0.101807H331.211C345.582 0.101807 357.232 11.7518 357.232 26.1227V447.879C357.232 462.25 345.582 473.9 331.211 473.9H26.5496C12.1787 473.9 0.528687 462.25 0.528687 447.879V26.1227Z" fill="url(#paint2_linear_47_767)"/>
</g>
<defs>
<filter id="filter0_d_47_767" x="0.528687" y="0.101807" width="365.704" height="482.798" filterUnits="userSpaceOnUse" color-interpolation-filters="sRGB">
<feFlood flood-opacity="0" result="BackgroundImageFix"/>
<feColorMatrix in="SourceAlpha" type="matrix" values="0 0 0 0 0 0 0 0 0 0 0 0 0 0 0 0 0 0 127 0" result="hardAlpha"/>
<feOffset dx="5" dy="5"/>
<feGaussianBlur stdDeviation="2"/>
<feComposite in2="hardAlpha" operator="out"/>
<feColorMatrix type="matrix" values="0 0 0 0 0 0 0 0 0 0.670833 0 0 0 0 0.514306 0 0 0 0.53 0"/>
<feBlend mode="normal" in2="BackgroundImageFix" result="effect1_dropShadow_47_767"/>
<feBlend mode="normal" in="SourceGraphic" in2="effect1_dropShadow_47_767" result="shape"/>
</filter>
<linearGradient id="paint0_linear_47_767" x1="178.881" y1="0.101807" x2="178.881" y2="473.9" gradientUnits="userSpaceOnUse">
<stop stop-color="#27EDCC"/>
<stop offset="0.5" stop-color="#49FFBF"/>
<stop offset="1" stop-color="#27EDCC"/>
</linearGradient>
<linearGradient id="paint1_linear_47_767" x1="178.881" y1="0.101807" x2="178.881" y2="473.9" gradientUnits="userSpaceOnUse">
<stop stop-color="#27EDCC"/>
<stop offset="0.5" stop-color="#49FFBF"/>
<stop offset="1" stop-color="#27EDCC"/>
</linearGradient>
<linearGradient id="paint2_linear_47_767" x1="178.881" y1="0.101807" x2="178.881" y2="473.9" gradientUnits="userSpaceOnUse">
<stop stop-color="#27EDCC"/>
<stop offset="0.5" stop-color="#49FFBF"/>
<stop offset="1" stop-color="#27EDCC"/>
</linearGradient>
</defs>
</svg>
