<svg width="357" height="473" viewBox="0 0 357 473" fill="none" xmlns="http://www.w3.org/2000/svg">
<g filter="url(#filter0_d_47_785)">
<path d="M0.751129 24.0453C0.751129 10.7905 11.4963 0.0452881 24.7511 0.0452881H332.253C345.508 0.0452881 356.253 10.7905 356.253 24.0453V448.247C356.253 461.502 345.508 472.247 332.253 472.247H24.7512C11.4963 472.247 0.751129 461.502 0.751129 448.247V24.0453Z" fill="url(#paint0_linear_47_785)"/>
<path d="M0.751129 25.9786C0.751129 11.656 12.3619 0.0452881 26.6844 0.0452881H330.32C344.643 0.0452881 356.253 11.656 356.253 25.9786V446.314C356.253 460.637 344.643 472.247 330.32 472.247H26.6844C12.3619 472.247 0.751129 460.637 0.751129 446.314V25.9786Z" fill="url(#paint1_linear_47_785)"/>
<path d="M0.751129 25.9786C0.751129 11.656 12.3619 0.0452881 26.6844 0.0452881H330.32C344.643 0.0452881 356.253 11.656 356.253 25.9786V446.314C356.253 460.637 344.643 472.247 330.32 472.247H26.6844C12.3619 472.247 0.751129 460.637 0.751129 446.314V25.9786Z" fill="url(#paint2_linear_47_785)"/>
</g>
<defs>
<filter id="filter0_d_47_785" x="0.751129" y="0.0452881" width="364.502" height="481.202" filterUnits="userSpaceOnUse" color-interpolation-filters="sRGB">
<feFlood flood-opacity="0" result="BackgroundImageFix"/>
<feColorMatrix in="SourceAlpha" type="matrix" values="0 0 0 0 0 0 0 0 0 0 0 0 0 0 0 0 0 0 127 0" result="hardAlpha"/>
<feOffset dx="5" dy="5"/>
<feGaussianBlur stdDeviation="2"/>
<feComposite in2="hardAlpha" operator="out"/>
<feColorMatrix type="matrix" values="0 0 0 0 0 0 0 0 0 0.670833 0 0 0 0 0.514306 0 0 0 0.53 0"/>
<feBlend mode="normal" in2="BackgroundImageFix" result="effect1_dropShadow_47_785"/>
<feBlend mode="normal" in="SourceGraphic" in2="effect1_dropShadow_47_785" result="shape"/>
</filter>
<linearGradient id="paint0_linear_47_785" x1="178.502" y1="0.0452881" x2="178.502" y2="472.247" gradientUnits="userSpaceOnUse">
<stop stop-color="#27EDCC"/>
<stop offset="0.5" stop-color="#49FFBF"/>
<stop offset="1" stop-color="#27EDCC"/>
</linearGradient>
<linearGradient id="paint1_linear_47_785" x1="178.502" y1="0.0452881" x2="178.502" y2="472.247" gradientUnits="userSpaceOnUse">
<stop stop-color="#27EDCC"/>
<stop offset="0.5" stop-color="#49FFBF"/>
<stop offset="1" stop-color="#27EDCC"/>
</linearGradient>
<linearGradient id="paint2_linear_47_785" x1="178.502" y1="0.0452881" x2="178.502" y2="472.247" gradientUnits="userSpaceOnUse">
<stop stop-color="#27EDCC"/>
<stop offset="0.5" stop-color="#49FFBF"/>
<stop offset="1" stop-color="#27EDCC"/>
</linearGradient>
</defs>
</svg>
