<svg width="47" height="47" viewBox="0 0 47 47" fill="none" xmlns="http://www.w3.org/2000/svg">
<g clip-path="url(#clip0_56_172)">
<path d="M44.5833 6.01317C42.7479 7.30784 40.7157 8.29805 38.565 8.94567C37.4107 7.6184 35.8765 6.67766 34.1701 6.2507C32.4637 5.82373 30.6674 5.93113 29.024 6.55837C27.3806 7.18562 25.9695 8.30244 24.9815 9.75779C23.9936 11.2131 23.4764 12.9368 23.5 14.6957V16.6123C20.1317 16.6997 16.7941 15.9526 13.7844 14.4378C10.7747 12.9229 8.18643 10.6872 6.24999 7.92984C6.24999 7.92984 -1.41668 25.1798 15.8333 32.8465C11.886 35.5259 7.18371 36.8695 2.41666 36.6798C19.6667 46.2632 40.75 36.6798 40.75 14.6382C40.7482 14.1043 40.6969 13.5717 40.5967 13.0473C42.5528 11.1182 43.9332 8.68254 44.5833 6.01317Z" stroke="#F96464" stroke-width="4" stroke-linecap="round" stroke-linejoin="round"/>
</g>
<defs>
<clipPath id="clip0_56_172">
<rect width="46" height="46" fill="white" transform="translate(0.5 0.263184)"/>
</clipPath>
</defs>
</svg>
