<svg width="49" height="49" viewBox="0 0 49 49" fill="none" xmlns="http://www.w3.org/2000/svg">
<g clip-path="url(#clip0_56_157)">
<path d="M45.5799 13.1032C45.3423 12.154 44.8585 11.2843 44.1772 10.582C43.496 9.87966 42.6414 9.36955 41.6999 9.10318C38.2599 8.26318 24.4999 8.26318 24.4999 8.26318C24.4999 8.26318 10.7399 8.26318 7.29992 9.18318C6.35842 9.44955 5.50388 9.95966 4.82262 10.662C4.14135 11.3643 3.6575 12.234 3.41992 13.1832C2.79035 16.6743 2.48239 20.2158 2.49992 23.7632C2.47748 27.3373 2.78546 30.9058 3.41992 34.4232C3.68184 35.3429 4.17654 36.1795 4.85621 36.8521C5.53589 37.5248 6.37756 38.0108 7.29992 38.2632C10.7399 39.1832 24.4999 39.1832 24.4999 39.1832C24.4999 39.1832 38.2599 39.1832 41.6999 38.2632C42.6414 37.9968 43.496 37.4867 44.1772 36.7844C44.8585 36.082 45.3423 35.2124 45.5799 34.2632C46.2046 30.7984 46.5126 27.2839 46.4999 23.7632C46.5224 20.1891 46.2144 16.6206 45.5799 13.1032Z" stroke="#F96464" stroke-width="4" stroke-linecap="round" stroke-linejoin="round"/>
<path d="M19.9999 30.3032L31.4999 23.7632L19.9999 17.2232V30.3032Z" stroke="#F96464" stroke-width="4" stroke-linecap="round" stroke-linejoin="round"/>
</g>
<defs>
<clipPath id="clip0_56_157">
<rect width="48" height="48" fill="white" transform="translate(0.499939 0.263184)"/>
</clipPath>
</defs>
</svg>
